<?xml version="1.0" encoding="UTF-8" standalone="no"?>
<!-- Created with Inkscape (http://www.inkscape.org/) -->

<svg
   xmlns:dc="http://purl.org/dc/elements/1.1/"
   xmlns:cc="http://creativecommons.org/ns#"
   xmlns:rdf="http://www.w3.org/1999/02/22-rdf-syntax-ns#"
   xmlns:svg="http://www.w3.org/2000/svg"
   xmlns="http://www.w3.org/2000/svg"
   xmlns:sodipodi="http://sodipodi.sourceforge.net/DTD/sodipodi-0.dtd"
   xmlns:inkscape="http://www.inkscape.org/namespaces/inkscape"
   width="510mm"
   height="200mm"
   viewBox="0 0 510 200"
   version="1.1"
   id="svg8"
   inkscape:version="0.92.4 5da689c313, 2019-01-14"
   sodipodi:docname="banner.svg">
  <defs
     id="defs2" />
  <sodipodi:namedview
     id="base"
     pagecolor="#ffffff"
     bordercolor="#666666"
     borderopacity="1.0"
     inkscape:pageopacity="0.0"
     inkscape:pageshadow="2"
     inkscape:zoom="0.35"
     inkscape:cx="726.29921"
     inkscape:cy="488.19026"
     inkscape:document-units="mm"
     inkscape:current-layer="layer1"
     showgrid="false"
     inkscape:window-width="1366"
     inkscape:window-height="671"
     inkscape:window-x="0"
     inkscape:window-y="0"
     inkscape:window-maximized="1" />
  <metadata
     id="metadata5">
    <rdf:RDF>
      <cc:Work
         rdf:about="">
        <dc:format>image/svg+xml</dc:format>
        <dc:type
           rdf:resource="http://purl.org/dc/dcmitype/StillImage" />
        <dc:title></dc:title>
      </cc:Work>
    </rdf:RDF>
  </metadata>
  <g
     inkscape:label="Capa 1"
     inkscape:groupmode="layer"
     id="layer1"
     transform="translate(0,-97)">
    <g
       id="g1000"
       transform="translate(214.69048,55.940476)">
      <circle
         r="60.428181"
         cy="136.4261"
         cx="-105.07738"
         id="path4659"
         style="opacity:1;fill:#353535;fill-opacity:1;stroke:none;stroke-width:0.90235692;stroke-linecap:round;stroke-linejoin:round;stroke-miterlimit:4;stroke-dasharray:none;stroke-opacity:1;paint-order:stroke markers fill" />
      <path
         inkscape:connector-curvature="0"
         id="path118"
         d="m -89.873345,53.612415 c -0.0292,6e-5 -0.0605,0.003 -0.094,0.009 -4.43455,0.79029 -4.097899,12.81054 -7.772649,15.82384 -1.046229,0.85791 -2.599066,-0.98891 -3.029266,-2.27169 -0.3406,-1.0156 1.424374,-4.63323 0.63768,-3.90623 -2.14154,1.97906 -1.99352,4.6368 -3.30832,6.3376 -0.53811,0.69608 -2.05102,0.99184 -2.75022,1.67432 -1.13241,1.10532 -1.0105,3.044651 -1.91307,4.34444 -0.78243,1.12677 -3.23986,1.63586 -2.94969,2.86959 0.40879,1.738161 0.96017,2.840765 0.47801,4.145475 -3.58113,9.69027 -9.29361,21.77498 -13.07362,29.3765 -0.68298,1.37345 -0.3615,-3.2497 -1.11621,-4.46432 -0.19834,-0.31919 -1.05878,-0.21178 -1.1157,0.15969 -0.46322,3.0227 1.86838,7.63836 0.71727,11.04066 -1.53991,4.55146 -1.61556,6.67245 -4.74338,12.91445 -2.36593,4.72155 0.43347,-9.96007 1.16169,-15.08485 0.15013,-1.05653 1.7648,-2.07223 1.1901,-2.97141 -0.37454,-0.586 -1.64866,-0.31197 -2.07274,0.23926 -5.01856,6.5232 -1.04904,21.40823 -4.14548,26.70587 -2.00017,3.42206 2.05749,-9.6398 -0.43822,-12.43644 -1.89258,-2.1208 -0.53062,11.91701 -2.91765,16.90231 -1.1451,2.39154 -12.94689,1.87863 -17.72967,6.89365 -2.3412,2.45487 6.66958,0.65894 10.10533,1.20457 0.97247,0.15444 -0.7371,1.79833 0.59996,3.08146 1.25556,1.2049 3.45743,0.76413 3.08612,1.61334 -6.10445,13.96113 -7.24189,22.31802 -10.55026,33.59072 -0.31806,1.08374 1.15568,2.03206 1.22318,3.15949 0.16059,2.68274 -2.34604,4.90511 -1.99316,7.81245 0.053,0.43666 0.84678,0.82581 1.19579,0.5581 1.61557,-1.23923 1.48008,-5.20279 3.42822,-6.85591 0.8908,-0.7559 2.2617,-0.1981 2.86959,-1.19579 2.17449,-3.56881 2.89343,-8.92254 5.66012,-12.91446 1.31634,-1.89929 1.7118,6.74645 2.39158,5.10201 3.71719,-8.99195 6.47602,-16.7231 12.57547,-34.11935 0.14683,-0.41879 25.231016,-9.08401 25.290955,-8.68939 5.75801,37.90749 8.37675,42.07573 16.422261,55.56404 0.36653,0.61445 1.733741,0.63769 1.733741,0.63769 0,0 1.576189,3.63831 2.880961,4.87722 0.93657,0.88929 1.92185,0.7431 1.92185,0.7431 l 3.58738,0.11938 c 0,0 2.59605,5.1508 4.98264,5.1418 0.80818,-0.003 1.6738,-1.7539 1.6738,-1.7539 0,0 5.79446,9.87248 7.77162,13.039 0.19033,0.30483 1.21995,0.36505 1.07745,0.0351 -2.09716,-4.85523 -8.13129,-16.66152 -8.13129,-16.66152 0,0 -0.005,-1.7869 -0.19947,-3.26853 -1.52727,-11.60769 -1.48172,-13.19153 -2.49855,-17.41082 -0.10441,-0.43325 0.94881,-1.13504 1.12344,-0.72502 2.97927,6.9951 4.34916,9.3336 4.76302,9.12761 0.45964,-0.2288 -3.69331,-12.2592 -3.69331,-12.2592 0,0 2.03416,-0.64062 2.00556,-3.38223 -0.0307,-2.94684 -1.41288,-5.81599 -2.77658,-8.39328 -0.50794,-0.95998 -2.86183,1.46062 -3.22822,0.43821 -2.50588,-6.99261 -7.70206,-27.67066 -8.968451,-31.68798 -0.186071,-0.59026 7.303871,-1.45845 10.762131,-2.79053 0.61557,-0.23709 1.42956,-0.34232 1.7539,-0.91673 0.78421,-1.38883 0.32724,-3.30581 -0.29249,-4.77542 -0.18951,-0.44941 -0.49744,-1.12526 -0.9834,-1.08367 -3.12533,0.26754 -12.728772,3.49677 -13.452413,2.65049 -1.96823,-2.30181 -11.428619,-39.97512 -12.655039,-42.03155 -0.687462,-1.15272 -1.51202,-0.27724 -1.43505,0.19948 1.232271,7.63211 11.484399,41.59533 11.479401,42.48992 -0.006,0.93768 -2.51981,1.25656 -2.79001,0.35863 -5.109232,-16.97921 -6.567491,-22.77269 -13.552141,-43.16739 -0.29454,-0.86001 4.783161,-10.953245 4.463809,-16.541625 -0.0487,-0.85236 -0.827119,-1.24027 -0.637688,-2.07274 1.259808,-5.53648 7.83631,-17.15219 5.993429,-17.14883 z M -113.9096,93.39759 c 0.15104,-0.0335 0.0405,0.68945 -0.16847,1.52651 -0.49297,1.97466 -5.69408,14.99992 -6.45955,14.56708 -0.21711,-0.12276 -0.12879,-0.54494 -0.10026,-0.79271 0.11662,-1.0128 6.45318,-15.10629 6.69469,-15.28382 0.0124,-0.009 0.0235,-0.0148 0.0336,-0.0171 z m 7.51996,11.64269 5.4932,28.09855 -2.30426,3.3104 -17.77824,5.02345 z m -15.57942,7.49516 c 0.16827,0.0215 0.26777,0.1681 0.093,0.59375 -0.32342,0.78778 -0.69506,2.69845 -1.49862,2.53215 -0.24423,-0.0505 -0.1293,-0.54494 -0.10077,-0.79271 0.11662,-1.0128 0.75999,-2.00061 1.00149,-2.17816 0.0996,-0.0732 0.33661,-0.17653 0.50488,-0.15503 z m 39.728847,26.67641 c 0.706929,0.0142 1.524158,0.45653 1.998329,1.58233 3.398492,8.06897 6.163962,23.89517 6.163962,23.89517 0,0 -5.370503,-15.77216 -9.379271,-23.95254 -0.418561,-0.85413 0.30807,-1.54321 1.21698,-1.52496 z m 8.819611,56.24048 1.03095,1.61696 c 0.53371,0.82316 -0.55707,0.37672 -0.55707,0.37672 -0.63652,-0.2479 -0.47388,-1.99368 -0.47388,-1.99368 z"
         style="fill:#1a91ce;fill-opacity:1;stroke:#294f63;stroke-width:1;stroke-linecap:round;stroke-linejoin:round;stroke-miterlimit:4;stroke-dasharray:none;stroke-opacity:1;paint-order:stroke markers fill" />
    </g>
    <g
       id="g996"
       transform="translate(214.69048,57.631648)">
      <g
         id="g950">
        <g
           aria-label="Anarchy"
           style="font-weight:bold;font-size:63.66307449px;line-height:1.25;font-family:Comfortaa;-inkscape-font-specification:'Comfortaa Bold';letter-spacing:0px;word-spacing:0px;fill:#cccccc;fill-opacity:1;stroke-width:1.70526099"
           id="text20-3">
          <path
             d="m 26.778007,123.95123 q 0.318315,0.82762 0.318315,1.40059 0,1.33692 -0.954946,2.29187 -0.954946,0.95494 -2.355534,0.95494 -0.954946,0 -1.846229,-0.5093 -0.82762,-0.57297 -1.209598,-1.52792 l -3.565132,-8.91283 H -5.6901612 l -3.6287952,8.91283 q -0.4456416,0.95495 -1.2732616,1.52792 -0.82762,0.5093 -1.782566,0.5093 -1.400588,0 -2.355534,-0.95494 -0.891283,-1.01861 -0.891283,-2.35554 0,-0.63663 0.318316,-1.46425 L 2.5860385,81.105979 q 0.9549461,-2.228207 3.1194906,-2.228207 2.2918707,0 3.1194907,2.228207 z M 14.936675,112.17356 5.8328553,89.509505 -3.4619536,112.17356 Z"
             style="fill:#cccccc;fill-opacity:1;stroke-width:1.70526099"
             id="path908"
             inkscape:connector-curvature="0" />
          <path
             d="m 51.033582,93.456616 q 4.392752,0 7.894221,1.909892 3.501469,1.909892 5.475024,5.602352 1.973556,3.62879 1.973556,8.7855 v 15.66112 q 0,1.40059 -0.954946,2.35553 -0.891283,0.89129 -2.291871,0.89129 -1.400588,0 -2.355534,-0.89129 -0.891283,-0.95494 -0.891283,-2.35553 v -15.66112 q 0,-5.15671 -2.801175,-7.76689 -2.737512,-2.673851 -7.321254,-2.673851 -2.673849,0 -4.902056,1.082271 -2.164545,1.08227 -3.437806,2.9285 -1.209599,1.84623 -1.209599,4.1381 v 17.95299 q 0,1.40059 -0.891283,2.35553 -0.891283,0.89129 -2.355534,0.89129 -1.400587,0 -2.355533,-0.89129 -0.891283,-0.95494 -0.891283,-2.35553 V 97.021748 q 0,-1.464251 0.891283,-2.355534 0.954946,-0.891283 2.355533,-0.891283 1.464251,0 2.355534,0.891283 0.891283,0.891283 0.891283,2.355534 v 0.700294 q 2.037219,-2.037219 4.838394,-3.119491 2.801175,-1.145935 5.984329,-1.145935 z"
             style="fill:#cccccc;fill-opacity:1;stroke-width:1.70526099"
             id="path910"
             inkscape:connector-curvature="0" />
          <path
             d="m 92.923831,93.520279 q 4.902057,0 8.849169,2.355534 4.01077,2.29187 6.30264,6.366307 2.35554,4.01077 2.35554,8.97649 v 14.19687 q 0,1.40059 -0.95495,2.35553 -0.89128,0.89129 -2.29187,0.89129 -1.40059,0 -2.35553,-0.89129 -0.89129,-0.95494 -0.89129,-2.35553 v -2.35553 q -2.2282,2.73751 -5.411358,4.26542 -3.183154,1.52792 -6.875612,1.52792 -4.583742,0 -8.339863,-2.29188 -3.692458,-2.29187 -5.857003,-6.30264 -2.100881,-4.07444 -2.100881,-9.04016 0,-4.96572 2.29187,-8.97649 2.291871,-4.074437 6.302645,-6.366307 4.074437,-2.355534 8.976493,-2.355534 z m 0,29.603331 q 3.183154,0 5.729677,-1.52792 2.610182,-1.59157 4.074432,-4.26542 1.46426,-2.73751 1.46426,-6.11166 0,-3.37414 -1.46426,-6.11165 -1.46425,-2.73751 -4.074432,-4.26543 -2.546523,-1.591575 -5.729677,-1.591575 -3.183153,0 -5.793339,1.591575 -2.546523,1.52792 -4.074437,4.26543 -1.464251,2.73751 -1.464251,6.11165 0,3.37415 1.464251,6.11166 1.527914,2.67385 4.074437,4.26542 2.610186,1.52792 5.793339,1.52792 z"
             style="fill:#cccccc;fill-opacity:1;stroke-width:1.70526099"
             id="path912"
             inkscape:connector-curvature="0" />
          <path
             d="m 137.16963,93.392953 q 3.37414,0 5.28403,1.018609 1.90989,1.018609 1.90989,2.546523 0,0.445641 -0.0637,0.636631 -0.57297,2.037218 -2.54652,2.037218 -0.31832,0 -0.95495,-0.127326 -2.54652,-0.445642 -4.1381,-0.445642 -4.58374,0 -7.38491,2.100884 -2.80118,2.10088 -2.80118,5.66601 v 18.58962 q 0,1.52791 -0.82762,2.35553 -0.76396,0.82762 -2.35553,0.82762 -1.52792,0 -2.35554,-0.76395 -0.82762,-0.82762 -0.82762,-2.4192 V 96.958085 q 0,-1.527914 0.82762,-2.355534 0.82762,-0.82762 2.35554,-0.82762 3.18315,0 3.18315,3.183154 v 1.209598 q 1.90989,-2.228207 4.71107,-3.501469 2.80117,-1.273261 5.98433,-1.273261 z"
             style="fill:#cccccc;fill-opacity:1;stroke-width:1.70526099"
             id="path914"
             inkscape:connector-curvature="0" />
          <path
             d="m 164.28992,128.85329 q -5.02938,0 -9.04016,-2.29188 -4.01077,-2.29187 -6.30264,-6.30264 -2.22821,-4.07444 -2.22821,-9.04016 0,-5.09304 2.16455,-9.10382 2.2282,-4.074433 6.17531,-6.302641 3.94711,-2.29187 8.91283,-2.29187 7.51225,0 12.47797,5.729676 0.63663,0.700294 0.63663,1.655245 0,1.40058 -1.40059,2.35553 -0.63663,0.44564 -1.46425,0.44564 -1.46425,0 -2.48286,-1.14593 -1.59158,-1.71891 -3.50147,-2.48286 -1.84623,-0.827625 -4.26543,-0.827625 -4.90205,0 -7.95788,3.310485 -3.05583,3.24681 -3.05583,8.65817 0,3.43781 1.40059,6.17532 1.46425,2.67385 4.01077,4.20176 2.61019,1.52792 5.92067,1.52792 4.32909,0 7.00294,-2.22821 1.2096,-0.89128 2.35553,-0.89128 0.89129,0 1.65524,0.57297 1.2096,1.0186 1.2096,2.29187 0,0.95494 -0.76396,1.7189 -4.58374,4.26543 -11.45935,4.26543 z"
             style="fill:#cccccc;fill-opacity:1;stroke-width:1.70526099"
             id="path916"
             inkscape:connector-curvature="0" />
          <path
             d="m 204.07932,93.456616 q 4.39276,0 7.89423,1.909892 3.50146,1.909892 5.47502,5.602352 1.97355,3.62879 1.97355,8.7855 v 15.66112 q 0,1.40059 -0.95494,2.35553 -0.89128,0.89129 -2.29187,0.89129 -1.40059,0 -2.35554,-0.89129 -0.89128,-0.95494 -0.89128,-2.35553 v -15.66112 q 0,-5.15671 -2.80117,-7.76689 -2.73752,-2.673851 -7.32126,-2.673851 -2.67385,0 -4.90205,1.082271 -2.16455,1.08227 -3.43781,2.9285 -1.2096,1.84623 -1.2096,4.1381 v 17.95299 q 0,1.40059 -0.89128,2.35553 -0.89128,0.89129 -2.35554,0.89129 -1.40058,0 -2.35553,-0.89129 -0.89128,-0.95494 -0.89128,-2.35553 V 82.124588 q 0,-1.46425 0.89128,-2.355533 0.95495,-0.891283 2.35553,-0.891283 1.46426,0 2.35554,0.891283 0.89128,0.891283 0.89128,2.355533 v 15.597454 q 2.03722,-2.037219 4.83839,-3.119491 2.80118,-1.145935 5.98433,-1.145935 z"
             style="fill:#cccccc;fill-opacity:1;stroke-width:1.70526099"
             id="path918"
             inkscape:connector-curvature="0" />
          <path
             d="m 256.85593,94.093246 q 1.97355,0.763957 1.97355,2.48286 0,0.636631 -0.38197,1.527914 l -19.4809,43.8002 q -0.76396,1.97355 -2.48286,1.97355 -0.63664,0 -1.52792,-0.38198 -1.90989,-0.82762 -1.90989,-2.48286 0,-0.76395 0.38198,-1.52791 l 6.36631,-14.32419 -14.3242,-27.184136 q -0.31831,-0.572968 -0.31831,-1.336925 0,-0.82762 0.5093,-1.527913 0.50931,-0.700294 1.33693,-1.082273 0.57296,-0.254652 1.27326,-0.254652 1.78256,0 2.67385,1.782566 l 11.65034,23.173363 10.24976,-23.1097 q 0.82762,-1.846229 2.48286,-1.846229 0.82762,0 1.52791,0.318315 z"
             style="fill:#cccccc;fill-opacity:1;stroke-width:1.70526099"
             id="path920"
             inkscape:connector-curvature="0" />
        </g>
        <g
           aria-label="Anarchy"
           style="font-weight:bold;font-size:63.66307449px;line-height:1.25;font-family:Comfortaa;-inkscape-font-specification:'Comfortaa Bold';letter-spacing:0px;word-spacing:0px;fill:#353535;fill-opacity:1;stroke-width:1.70526099"
           id="text20">
          <path
             d="m 25.190505,122.36376 q 0.318316,0.82762 0.318316,1.40059 0,1.33692 -0.954946,2.29187 -0.954947,0.95494 -2.355534,0.95494 -0.954946,0 -1.846229,-0.5093 -0.82762,-0.57297 -1.209599,-1.52792 l -3.565132,-8.91283 H -7.2776627 l -3.6287953,8.91283 q -0.445641,0.95495 -1.273261,1.52792 -0.82762,0.5093 -1.782567,0.5093 -1.400587,0 -2.355533,-0.95494 -0.891283,-1.01861 -0.891283,-2.35554 0,-0.63663 0.318315,-1.46425 L 0.99853696,79.518508 q 0.95494614,-2.228207 3.11949064,-2.228207 2.2918707,0 3.1194907,2.228207 z M 13.349173,110.58609 4.2453538,87.922034 -5.0494551,110.58609 Z"
             style="fill:#353535;fill-opacity:1;stroke-width:1.70526099"
             id="path893"
             inkscape:connector-curvature="0" />
          <path
             d="m 49.44608,91.869145 q 4.392752,0 7.894222,1.909892 3.501469,1.909892 5.475024,5.60235 1.973555,3.628793 1.973555,8.785503 v 15.66112 q 0,1.40059 -0.954946,2.35553 -0.891283,0.89128 -2.291871,0.89128 -1.400587,0 -2.355533,-0.89128 -0.891283,-0.95494 -0.891283,-2.35553 v -15.66112 q 0,-5.15671 -2.801176,-7.76689 -2.737512,-2.673852 -7.321253,-2.673852 -2.673849,0 -4.902057,1.082272 -2.164544,1.082272 -3.437806,2.9285 -1.209598,1.84623 -1.209598,4.1381 v 17.95299 q 0,1.40059 -0.891283,2.35553 -0.891283,0.89128 -2.355534,0.89128 -1.400588,0 -2.355534,-0.89128 -0.891283,-0.95494 -0.891283,-2.35553 V 95.434277 q 0,-1.464251 0.891283,-2.355534 0.954946,-0.891283 2.355534,-0.891283 1.464251,0 2.355534,0.891283 0.891283,0.891283 0.891283,2.355534 v 0.700294 q 2.037218,-2.037219 4.838393,-3.119491 2.801176,-1.145935 5.984329,-1.145935 z"
             style="fill:#353535;fill-opacity:1;stroke-width:1.70526099"
             id="path895"
             inkscape:connector-curvature="0" />
          <path
             d="m 91.33633,91.932808 q 4.902057,0 8.84917,2.355534 4.01077,2.29187 6.30264,6.366308 2.35554,4.01077 2.35554,8.97649 v 14.19687 q 0,1.40059 -0.95495,2.35553 -0.89128,0.89128 -2.29187,0.89128 -1.40059,0 -2.35554,-0.89128 -0.89128,-0.95494 -0.89128,-2.35553 v -2.35554 q -2.22821,2.73752 -5.41136,4.26543 -3.183153,1.52791 -6.875612,1.52791 -4.583741,0 -8.339862,-2.29187 -3.692459,-2.29187 -5.857003,-6.30264 -2.100882,-4.07444 -2.100882,-9.04016 0,-4.96572 2.291871,-8.97649 2.291871,-4.074438 6.302644,-6.366308 4.074437,-2.355534 8.976494,-2.355534 z m 0,29.603332 q 3.183154,0 5.729676,-1.52792 2.610187,-1.59157 4.074434,-4.26542 1.46425,-2.73751 1.46425,-6.11166 0,-3.37414 -1.46425,-6.11165 -1.464247,-2.73751 -4.074434,-4.265429 -2.546522,-1.591577 -5.729676,-1.591577 -3.183154,0 -5.79334,1.591577 -2.546523,1.527919 -4.074437,4.265429 -1.46425,2.73751 -1.46425,6.11165 0,3.37415 1.46425,6.11166 1.527914,2.67385 4.074437,4.26542 2.610186,1.52792 5.79334,1.52792 z"
             style="fill:#1a91ce;fill-opacity:1"
             id="path897"
             inkscape:connector-curvature="0" />
          <path
             d="m 135.58213,91.805482 q 3.37414,0 5.28403,1.018609 1.90989,1.018609 1.90989,2.546523 0,0.445641 -0.0637,0.636631 -0.57297,2.037218 -2.54652,2.037218 -0.31832,0 -0.95495,-0.127326 -2.54652,-0.445642 -4.1381,-0.445642 -4.58374,0 -7.38492,2.100882 -2.80117,2.100883 -2.80117,5.666013 v 18.58962 q 0,1.52791 -0.82762,2.35553 -0.76396,0.82762 -2.35553,0.82762 -1.52792,0 -2.35554,-0.76396 -0.82762,-0.82762 -0.82762,-2.41919 V 95.370614 q 0,-1.527914 0.82762,-2.355534 0.82762,-0.82762 2.35554,-0.82762 3.18315,0 3.18315,3.183154 v 1.209598 q 1.90989,-2.228207 4.71107,-3.501469 2.80117,-1.273261 5.98433,-1.273261 z"
             style="fill:#1a91ce;fill-opacity:1"
             id="path899"
             inkscape:connector-curvature="0" />
          <path
             d="m 162.70242,127.26581 q -5.02938,0 -9.04016,-2.29187 -4.01077,-2.29187 -6.30264,-6.30264 -2.22821,-4.07444 -2.22821,-9.04016 0,-5.09304 2.16454,-9.10382 2.22821,-4.074434 6.17532,-6.302642 3.94711,-2.29187 8.91283,-2.29187 7.51225,0 12.47797,5.729676 0.63663,0.700294 0.63663,1.65524 0,1.400586 -1.40059,2.355536 -0.63663,0.44564 -1.46425,0.44564 -1.46425,0 -2.48286,-1.14594 -1.59158,-1.718899 -3.50147,-2.482856 -1.84623,-0.82762 -4.26543,-0.82762 -4.90205,0 -7.95788,3.310476 -3.05583,3.24682 -3.05583,8.65818 0,3.43781 1.40059,6.17532 1.46425,2.67385 4.01077,4.20176 2.61019,1.52792 5.92067,1.52792 4.32909,0 7.00294,-2.22821 1.2096,-0.89128 2.35553,-0.89128 0.89128,0 1.65524,0.57296 1.2096,1.01861 1.2096,2.29188 0,0.95494 -0.76396,1.7189 -4.58374,4.26542 -11.45935,4.26542 z"
             style="fill:#1a91ce;fill-opacity:1"
             id="path901"
             inkscape:connector-curvature="0" />
          <path
             d="m 202.49182,91.869145 q 4.39275,0 7.89422,1.909892 3.50147,1.909892 5.47503,5.60235 1.97355,3.628793 1.97355,8.785503 v 15.66112 q 0,1.40059 -0.95494,2.35553 -0.89129,0.89128 -2.29187,0.89128 -1.40059,0 -2.35554,-0.89128 -0.89128,-0.95494 -0.89128,-2.35553 v -15.66112 q 0,-5.15671 -2.80118,-7.76689 -2.73751,-2.673852 -7.32125,-2.673852 -2.67385,0 -4.90206,1.082272 -2.16454,1.082272 -3.4378,2.9285 -1.2096,1.84623 -1.2096,4.1381 v 17.95299 q 0,1.40059 -0.89128,2.35553 -0.89129,0.89128 -2.35554,0.89128 -1.40058,0 -2.35553,-0.89128 -0.89128,-0.95494 -0.89128,-2.35553 V 80.537117 q 0,-1.46425 0.89128,-2.355533 0.95495,-0.891283 2.35553,-0.891283 1.46425,0 2.35554,0.891283 0.89128,0.891283 0.89128,2.355533 v 15.597454 q 2.03722,-2.037219 4.83839,-3.119491 2.80118,-1.145935 5.98433,-1.145935 z"
             style="fill:#1a91ce;fill-opacity:1"
             id="path903"
             inkscape:connector-curvature="0" />
          <path
             d="m 255.26843,92.505775 q 1.97355,0.763957 1.97355,2.48286 0,0.636631 -0.38198,1.527914 l -19.4809,43.800191 q -0.76395,1.97356 -2.48286,1.97356 -0.63663,0 -1.52791,-0.38198 -1.90989,-0.82762 -1.90989,-2.48286 0,-0.76396 0.38198,-1.52791 l 6.3663,-14.32419 -14.32419,-27.184137 q -0.31831,-0.572968 -0.31831,-1.336925 0,-0.82762 0.5093,-1.527913 0.50931,-0.700294 1.33693,-1.082273 0.57296,-0.254652 1.27326,-0.254652 1.78256,0 2.67385,1.782566 l 11.65034,23.173364 10.24975,-23.109701 q 0.82762,-1.846229 2.48286,-1.846229 0.82762,0 1.52792,0.318315 z"
             style="fill:#353535;fill-opacity:1;stroke-width:1.70526099"
             id="path905"
             inkscape:connector-curvature="0" />
        </g>
      </g>
      <g
         transform="translate(14.071568)"
         id="g964">
        <g
           aria-label="Linux"
           style="font-weight:bold;font-size:60.65349579px;line-height:1.25;font-family:Comfortaa;-inkscape-font-specification:'Comfortaa Bold';letter-spacing:0px;word-spacing:0px;fill:#cccccc;fill-opacity:1;stroke-width:1.62464714"
           id="text24-5">
          <path
             inkscape:connector-curvature="0"
             d="m 28.834642,195.52408 q -1.334377,0 -2.244179,-0.9098 -0.849149,-0.90981 -0.849149,-2.24418 v -41.06242 q 0,-1.33438 0.909802,-2.24418 0.909803,-0.9098 2.183526,-0.9098 1.334377,0 2.24418,0.9098 0.909802,0.9098 0.909802,2.24418 v 37.90843 h 21.956565 q 1.334377,0 2.24418,0.90981 0.909802,0.9098 0.909802,2.24418 0,1.33437 -0.909802,2.24418 -0.909803,0.9098 -2.24418,0.9098 z"
             style="fill:#cccccc;fill-opacity:1;stroke-width:1.62464714"
             id="path923" />
          <path
             inkscape:connector-curvature="0"
             d="m 67.774084,195.52408 q -1.334377,0 -2.244179,-0.84915 -0.849149,-0.9098 -0.849149,-2.24418 v -26.99081 q 0,-1.39503 0.849149,-2.24417 0.909802,-0.84915 2.244179,-0.84915 1.39503,0 2.244179,0.84915 0.849149,0.84914 0.849149,2.24417 v 26.99081 q 0,1.33438 -0.849149,2.24418 -0.849149,0.84915 -2.244179,0.84915 z m 0,-38.57562 q -1.637644,0 -2.850714,-1.15242 -1.152417,-1.21307 -1.152417,-2.85072 0,-1.63764 1.152417,-2.79006 1.21307,-1.21307 2.850714,-1.21307 1.637644,0 2.790061,1.21307 1.21307,1.15242 1.21307,2.79006 0,1.63765 -1.21307,2.85072 -1.152417,1.15242 -2.790061,1.15242 z"
             style="fill:#cccccc;fill-opacity:1;stroke-width:1.62464714"
             id="path925" />
          <path
             inkscape:connector-curvature="0"
             d="m 98.889213,162.04335 q 4.185087,0 7.521037,1.8196 3.33594,1.81961 5.2162,5.33751 1.88026,3.45725 1.88026,8.37018 v 14.92076 q 0,1.33438 -0.90981,2.24418 -0.84915,0.84915 -2.18352,0.84915 -1.33438,0 -2.24418,-0.84915 -0.84915,-0.9098 -0.84915,-2.24418 v -14.92076 q 0,-4.91293 -2.66875,-7.39972 -2.60811,-2.54745 -6.975157,-2.54745 -2.547447,0 -4.670319,1.03111 -2.062219,1.03111 -3.275289,2.79006 -1.152416,1.75895 -1.152416,3.94248 v 17.10428 q 0,1.33438 -0.849149,2.24418 -0.849149,0.84915 -2.244179,0.84915 -1.334377,0 -2.24418,-0.84915 -0.849149,-0.9098 -0.849149,-2.24418 v -27.05146 q 0,-1.39503 0.849149,-2.24417 0.909803,-0.84915 2.24418,-0.84915 1.39503,0 2.244179,0.84915 0.849149,0.84914 0.849149,2.24417 v 0.66719 q 1.940912,-1.94091 4.609666,-2.97202 2.668753,-1.09176 5.701428,-1.09176 z"
             style="fill:#cccccc;fill-opacity:1;stroke-width:1.62464714"
             id="path927" />
          <path
             inkscape:connector-curvature="0"
             d="m 151.11183,162.28596 q 1.39503,0 2.24418,0.84915 0.84915,0.84915 0.84915,2.24418 v 27.05146 q 0,1.33438 -0.84915,2.24418 -0.84915,0.84915 -2.24418,0.84915 -1.33438,0 -2.24418,-0.84915 -0.84915,-0.9098 -0.84915,-2.24418 v -0.66719 q -1.94091,1.94091 -4.60967,3.03268 -2.66875,1.03111 -5.70142,1.03111 -4.1851,0 -7.52104,-1.81961 -3.33594,-1.8196 -5.2162,-5.27685 -1.88026,-3.51791 -1.88026,-8.43084 v -14.92076 q 0,-1.33438 0.84915,-2.18352 0.9098,-0.90981 2.24418,-0.90981 1.33438,0 2.18353,0.90981 0.9098,0.84914 0.9098,2.18352 v 14.92076 q 0,4.91293 2.6081,7.46038 2.66875,2.48679 7.03581,2.48679 2.54744,0 4.60966,-1.03111 2.12287,-1.0311 3.27529,-2.79006 1.21307,-1.75895 1.21307,-3.94247 v -17.10429 q 0,-1.39503 0.84915,-2.24418 0.9098,-0.84915 2.24418,-0.84915 z"
             style="fill:#cccccc;fill-opacity:1;stroke-width:1.62464714"
             id="path929" />
          <path
             inkscape:connector-curvature="0"
             d="m 188.47428,190.85376 q 0.84915,0.9098 0.84915,2.12287 0,1.09176 -0.78849,1.81961 -0.72784,0.72784 -1.94091,0.72784 -1.45569,0 -2.18353,-0.97046 l -9.64391,-11.52416 -9.15867,11.52416 q -0.90981,0.97046 -2.18353,0.97046 -1.21307,0 -1.94091,-0.72784 -0.66719,-0.72785 -0.66719,-1.81961 0,-1.21307 0.84915,-2.24418 l 9.40129,-11.76678 -10.00783,-11.82743 q -0.9098,-1.09176 -0.9098,-2.30483 0,-1.03111 0.66719,-1.75895 0.72784,-0.72784 2.00157,-0.72784 1.45568,0 2.30483,1.03111 l 9.94717,11.88808 8.91607,-11.88808 q 0.78849,-1.03111 2.24417,-1.03111 1.21307,0 1.88026,0.78849 0.72785,0.72784 0.72785,1.81961 0,1.33437 -0.84915,2.42614 l -9.15868,11.94873 z"
             style="fill:#cccccc;fill-opacity:1;stroke-width:1.62464714"
             id="path931" />
        </g>
        <g
           aria-label="Linux"
           style="font-weight:bold;font-size:60.65349579px;line-height:1.25;font-family:Comfortaa;-inkscape-font-specification:'Comfortaa Bold';letter-spacing:0px;word-spacing:0px;fill:#353535;fill-opacity:1;stroke-width:1.62464714"
           id="text24">
          <path
             inkscape:connector-curvature="0"
             d="m 27.247141,193.9366 q -1.334377,0 -2.24418,-0.9098 -0.849149,-0.90981 -0.849149,-2.24418 V 149.7202 q 0,-1.33438 0.909803,-2.24418 0.909802,-0.9098 2.183526,-0.9098 1.334377,0 2.244179,0.9098 0.909802,0.9098 0.909802,2.24418 v 37.90844 h 21.956566 q 1.334377,0 2.244179,0.9098 0.909803,0.9098 0.909803,2.24418 0,1.33437 -0.909803,2.24418 -0.909802,0.9098 -2.244179,0.9098 z"
             style="fill:#353535;fill-opacity:1;stroke-width:1.62464714"
             id="path882" />
          <path
             inkscape:connector-curvature="0"
             d="m 66.186582,193.9366 q -1.334377,0 -2.244179,-0.84915 -0.849149,-0.9098 -0.849149,-2.24418 v -26.9908 q 0,-1.39503 0.849149,-2.24418 0.909802,-0.84915 2.244179,-0.84915 1.395031,0 2.24418,0.84915 0.849149,0.84915 0.849149,2.24418 v 26.9908 q 0,1.33438 -0.849149,2.24418 -0.849149,0.84915 -2.24418,0.84915 z m 0,-38.57562 q -1.637644,0 -2.850714,-1.15242 -1.152416,-1.21307 -1.152416,-2.85071 0,-1.63765 1.152416,-2.79007 1.21307,-1.21307 2.850714,-1.21307 1.637645,0 2.790061,1.21307 1.21307,1.15242 1.21307,2.79007 0,1.63764 -1.21307,2.85071 -1.152416,1.15242 -2.790061,1.15242 z"
             style="fill:#353535;fill-opacity:1;stroke-width:1.62464714"
             id="path884" />
          <path
             inkscape:connector-curvature="0"
             d="m 97.301712,160.45587 q 4.185088,0 7.521038,1.8196 3.33594,1.81961 5.2162,5.33751 1.88025,3.45725 1.88025,8.37018 v 14.92076 q 0,1.33438 -0.9098,2.24418 -0.84915,0.84915 -2.18352,0.84915 -1.33438,0 -2.24418,-0.84915 -0.84915,-0.9098 -0.84915,-2.24418 v -14.92076 q 0,-4.91293 -2.66876,-7.39972 -2.6081,-2.54745 -6.975148,-2.54745 -2.547447,0 -4.670319,1.03111 -2.062219,1.03111 -3.275289,2.79006 -1.152417,1.75895 -1.152417,3.94248 v 17.10428 q 0,1.33438 -0.849149,2.24418 -0.849149,0.84915 -2.244179,0.84915 -1.334377,0 -2.244179,-0.84915 -0.849149,-0.9098 -0.849149,-2.24418 v -27.05145 q 0,-1.39503 0.849149,-2.24418 0.909802,-0.84915 2.244179,-0.84915 1.39503,0 2.244179,0.84915 0.849149,0.84915 0.849149,2.24418 v 0.66718 q 1.940912,-1.94091 4.609666,-2.97202 2.668754,-1.09176 5.701429,-1.09176 z"
             style="fill:#353535;fill-opacity:1;stroke-width:1.62464714"
             id="path886" />
          <path
             inkscape:connector-curvature="0"
             d="m 149.52433,160.69848 q 1.39503,0 2.24418,0.84915 0.84914,0.84915 0.84914,2.24418 v 27.05146 q 0,1.33438 -0.84914,2.24418 -0.84915,0.84915 -2.24418,0.84915 -1.33438,0 -2.24418,-0.84915 -0.84915,-0.9098 -0.84915,-2.24418 v -0.66719 q -1.94091,1.94091 -4.60967,3.03268 -2.66875,1.03111 -5.70143,1.03111 -4.18509,0 -7.52103,-1.81961 -3.33594,-1.8196 -5.2162,-5.27685 -1.88026,-3.5179 -1.88026,-8.43084 v -14.92076 q 0,-1.33437 0.84915,-2.18352 0.9098,-0.90981 2.24418,-0.90981 1.33438,0 2.18353,0.90981 0.9098,0.84915 0.9098,2.18352 v 14.92076 q 0,4.91294 2.6081,7.46038 2.66875,2.4868 7.0358,2.4868 2.54745,0 4.60967,-1.03111 2.12287,-1.03111 3.27529,-2.79006 1.21307,-1.75896 1.21307,-3.94248 v -17.10429 q 0,-1.39503 0.84915,-2.24418 0.9098,-0.84915 2.24418,-0.84915 z"
             style="fill:#353535;fill-opacity:1;stroke-width:1.62464714"
             id="path888" />
          <path
             inkscape:connector-curvature="0"
             d="m 186.88678,189.26628 q 0.84915,0.9098 0.84915,2.12287 0,1.09177 -0.78849,1.81961 -0.72785,0.72784 -1.94092,0.72784 -1.45568,0 -2.18352,-0.97046 l -9.64391,-11.52416 -9.15868,11.52416 q -0.9098,0.97046 -2.18352,0.97046 -1.21307,0 -1.94091,-0.72784 -0.66719,-0.72784 -0.66719,-1.81961 0,-1.21307 0.84915,-2.24418 l 9.40129,-11.76677 -10.00783,-11.82744 q -0.9098,-1.09176 -0.9098,-2.30483 0,-1.03111 0.66719,-1.75895 0.72784,-0.72784 2.00156,-0.72784 1.45569,0 2.30484,1.03111 l 9.94717,11.88808 8.91606,-11.88808 q 0.7885,-1.03111 2.24418,-1.03111 1.21307,0 1.88026,0.78849 0.72784,0.72784 0.72784,1.81961 0,1.33437 -0.84915,2.42614 l -9.15867,11.94874 z"
             style="fill:#353535;fill-opacity:1;stroke-width:1.62464714"
             id="path890" />
        </g>
      </g>
    </g>
  </g>
</svg>
