<?xml version="1.0" encoding="UTF-8" standalone="no"?>
<!-- Created with Inkscape (http://www.inkscape.org/) -->

<svg
   xmlns:dc="http://purl.org/dc/elements/1.1/"
   xmlns:cc="http://creativecommons.org/ns#"
   xmlns:rdf="http://www.w3.org/1999/02/22-rdf-syntax-ns#"
   xmlns:svg="http://www.w3.org/2000/svg"
   xmlns="http://www.w3.org/2000/svg"
   xmlns:sodipodi="http://sodipodi.sourceforge.net/DTD/sodipodi-0.dtd"
   xmlns:inkscape="http://www.inkscape.org/namespaces/inkscape"
   width="185mm"
   height="185mm"
   viewBox="0 0 185 185"
   version="1.1"
   id="svg8"
   inkscape:version="0.92.4 5da689c313, 2019-01-14"
   sodipodi:docname="anarchy.svg">
  <defs
     id="defs2" />
  <sodipodi:namedview
     id="base"
     pagecolor="#ffffff"
     bordercolor="#666666"
     borderopacity="1.0"
     inkscape:pageopacity="0.0"
     inkscape:pageshadow="2"
     inkscape:zoom="0.20743535"
     inkscape:cx="1395.2042"
     inkscape:cy="646.58512"
     inkscape:document-units="mm"
     inkscape:current-layer="layer1"
     showgrid="false"
     inkscape:window-width="1364"
     inkscape:window-height="741"
     inkscape:window-x="0"
     inkscape:window-y="25"
     inkscape:window-maximized="1" />
  <metadata
     id="metadata5">
    <rdf:RDF>
      <cc:Work
         rdf:about="">
        <dc:format>image/svg+xml</dc:format>
        <dc:type
           rdf:resource="http://purl.org/dc/dcmitype/StillImage" />
        <dc:title></dc:title>
      </cc:Work>
    </rdf:RDF>
  </metadata>
  <g
     inkscape:label="Capa 1"
     inkscape:groupmode="layer"
     id="layer1"
     transform="translate(0,-112)">
    <circle
       style="opacity:1;fill:#353535;fill-opacity:1;stroke:none;stroke-width:0.90235692;stroke-linecap:round;stroke-linejoin:round;stroke-miterlimit:4;stroke-dasharray:none;stroke-opacity:1;paint-order:stroke markers fill"
       id="path4659"
       cx="92.5"
       cy="202.6758"
       r="60.428177" />
    <path
       style="fill:#1a91ce;fill-opacity:1;stroke:#294f63;stroke-width:1;stroke-linecap:round;stroke-linejoin:round;stroke-miterlimit:4;stroke-dasharray:none;stroke-opacity:1;paint-order:stroke markers fill"
       d="m 107.70404,119.86212 c -0.0292,6e-5 -0.0605,0.003 -0.094,0.009 -4.43455,0.79029 -4.0979,12.81054 -7.77265,15.82384 -1.04623,0.85791 -2.59907,-0.98891 -3.02927,-2.27169 -0.3406,-1.0156 1.42438,-4.63323 0.63768,-3.90623 -2.14154,1.97906 -1.99352,4.6368 -3.30832,6.3376 -0.53811,0.69608 -2.05102,0.99184 -2.75022,1.67432 -1.13241,1.10532 -1.0105,3.04465 -1.913063,4.34444 -0.78243,1.12677 -3.239859,1.63586 -2.949693,2.86959 0.408792,1.73816 0.960173,2.84077 0.478007,4.14548 -3.581122,9.69026 -9.293608,21.77497 -13.07362,29.3765 -0.682972,1.37344 -0.361495,-3.2497 -1.116211,-4.46432 -0.198337,-0.31919 -1.058776,-0.21179 -1.115695,0.15968 -0.463217,3.02271 1.868381,7.63836 0.717269,11.04067 -1.539907,4.55145 -1.615564,6.67245 -4.743381,12.91445 -2.365933,4.72155 0.433469,-9.96008 1.161687,-15.08486 0.15013,-1.05653 1.764808,-2.07223 1.190107,-2.9714 -0.374544,-0.58601 -1.648659,-0.31197 -2.072741,0.23926 -5.018558,6.52319 -1.049043,21.40822 -4.145483,26.70587 -2.000171,3.42205 2.057495,-9.6398 -0.438216,-12.43645 -1.892581,-2.12079 -0.530622,11.91701 -2.917651,16.90232 -1.145101,2.39154 -12.946888,1.87862 -17.729668,6.89364 -2.3412,2.45488 6.669577,0.65894 10.105326,1.20458 0.972471,0.15444 -0.737097,1.79833 0.599964,3.08146 1.255559,1.2049 3.457427,0.76413 3.086116,1.61334 -6.104451,13.96113 -7.241889,22.31802 -10.55026,33.59072 -0.318058,1.08374 1.155681,2.03206 1.223182,3.15949 0.160589,2.68274 -2.346039,4.90511 -1.993159,7.81245 0.053,0.43666 0.84678,0.82581 1.195792,0.5581 1.61557,-1.23923 1.480074,-5.20279 3.428214,-6.85591 0.890799,-0.7559 2.261701,-0.1981 2.869592,-1.19579 2.174491,-3.56881 2.89343,-8.92254 5.66012,-12.91446 1.316339,-1.89929 1.711796,6.74645 2.391584,5.10201 3.71719,-8.99195 6.476016,-16.7231 12.575461,-34.11936 0.146836,-0.41879 25.23102,-9.08401 25.29096,-8.68939 5.75801,37.9075 8.37675,42.07574 16.42226,55.56405 0.36653,0.61445 1.73374,0.63769 1.73374,0.63769 0,0 1.57619,3.63831 2.88096,4.87722 0.93657,0.88929 1.92185,0.7431 1.92185,0.7431 l 3.58738,0.11938 c 0,0 2.59605,5.1508 4.98264,5.1418 0.80818,-0.003 1.6738,-1.7539 1.6738,-1.7539 0,0 5.79446,9.87248 7.77162,13.039 0.19033,0.30483 1.21995,0.36505 1.07745,0.0351 -2.09716,-4.85523 -8.13129,-16.66152 -8.13129,-16.66152 0,0 -0.005,-1.7869 -0.19947,-3.26853 -1.52727,-11.60769 -1.48172,-13.19153 -2.49855,-17.41082 -0.10441,-0.43325 0.94881,-1.13504 1.12344,-0.72502 2.97927,6.9951 4.34916,9.3336 4.76302,9.12761 0.45964,-0.2288 -3.69331,-12.2592 -3.69331,-12.2592 0,0 2.03416,-0.64062 2.00556,-3.38223 -0.0307,-2.94684 -1.41288,-5.81599 -2.77658,-8.39328 -0.50794,-0.95998 -2.86183,1.46062 -3.22822,0.43821 -2.50588,-6.99261 -7.70206,-27.67067 -8.96845,-31.68799 -0.18607,-0.59025 7.30387,-1.45845 10.76213,-2.79052 0.61557,-0.2371 1.42956,-0.34233 1.7539,-0.91674 0.78421,-1.38882 0.32724,-3.30581 -0.29249,-4.77542 -0.18951,-0.44941 -0.49744,-1.12526 -0.9834,-1.08366 -3.12533,0.26753 -12.72877,3.49677 -13.45241,2.65049 -1.96823,-2.30182 -11.42862,-39.97512 -12.65504,-42.03155 -0.68746,-1.15272 -1.51202,-0.27725 -1.43505,0.19948 1.23227,7.63211 11.4844,41.59532 11.4794,42.48991 -0.006,0.93769 -2.51981,1.25656 -2.79001,0.35863 -5.10923,-16.97921 -6.56749,-22.77269 -13.55214,-43.16739 -0.29454,-0.86001 4.78316,-10.95324 4.46381,-16.54162 -0.0487,-0.85236 -0.82712,-1.24027 -0.63769,-2.07274 1.25981,-5.53648 7.83631,-17.15219 5.99343,-17.14883 z m -24.03626,39.78517 c 0.151043,-0.0335 0.04051,0.68946 -0.168466,1.52652 -0.492971,1.97466 -5.694076,14.99991 -6.459553,14.56707 -0.217104,-0.12276 -0.128783,-0.54494 -0.100253,-0.79271 0.116615,-1.0128 6.453177,-15.10628 6.694683,-15.28382 0.01244,-0.009 0.02352,-0.0148 0.03359,-0.0171 z m 7.51996,11.6427 5.4932,28.09854 -2.30425,3.3104 -17.778246,5.02346 z m -15.579417,7.49515 c 0.16827,0.0215 0.267771,0.1681 0.09302,0.59376 -0.323416,0.78777 -0.695061,2.69844 -1.498616,2.53215 -0.244232,-0.0505 -0.129299,-0.54495 -0.100769,-0.79272 0.116615,-1.0128 0.759984,-2.00061 1.00149,-2.17816 0.09956,-0.0732 0.336608,-0.17653 0.504878,-0.15503 z m 39.728847,26.67641 c 0.70693,0.0142 1.52416,0.45653 1.99833,1.58233 3.39849,8.06897 6.16396,23.89518 6.16396,23.89518 0,0 -5.3705,-15.77217 -9.37927,-23.95254 -0.41856,-0.85414 0.30807,-1.54322 1.21698,-1.52497 z m 8.81961,56.24049 1.03095,1.61696 c 0.53371,0.82316 -0.55707,0.37672 -0.55707,0.37672 -0.63652,-0.2479 -0.47388,-1.99368 -0.47388,-1.99368 z"
       id="path118"
       inkscape:connector-curvature="0" />
  </g>
</svg>
