/* XPM */
static char * bottom_left_active_xpm[] = {
"4 4 4 1",
" 	c None",
".	c #4C3B55",
"+	c #222222",
"@	c #4D3B55",
".+++",
"@+++",
"@+++",
"@@@@"};
