/* XPM */
static char * bottom_right_active_xpm[] = {
"4 4 6 1",
" 	c None",
".	c #222222",
"+	c #4C3C57",
"@	c #4C3B56",
"#	c #4C3B55",
"$	c #4D3B55",
"...+",
"...@",
"...#",
"$$$#"};
