/* XPM */
static char * close_pressed_xpm[] = {
"22 28 5 1",
" 	c None",
".	c #B02323",
"+	c #222222",
"@	c #583D3D",
"#	c #2F2323",
"                      ",
"                      ",
"                      ",
"                      ",
"                      ",
"                      ",
"                      ",
"                      ",
"                      ",
"                      ",
"    ...++++++++...    ",
"    ....++++++....    ",
"    ..@@@++++@@@..    ",
"    +.@@@@++@@@@.+    ",
"    ++@@######@@++    ",
"    +++@######@+++    ",
"    ++++######++++    ",
"    ++++######++++    ",
"    +++@######@+++    ",
"    ++@@######@@++    ",
"    +.@@@@++@@@@.+    ",
"    ..@@@++++@@@..    ",
"    ....++++++....    ",
"    ...++++++++...    ",
"                      ",
"                      ",
"                      ",
"                      "};
