/* XPM */
static char * close_prelight_xpm[] = {
"22 28 3 1",
" 	c None",
".	c #B02323",
"+	c #222222",
"                      ",
"                      ",
"                      ",
"                      ",
"                      ",
"                      ",
"                      ",
"                      ",
"                      ",
"                      ",
"    ...++++++++...    ",
"    ....++++++....    ",
"    .....++++.....    ",
"    +.....++.....+    ",
"    ++..........++    ",
"    +++........+++    ",
"    ++++......++++    ",
"    ++++......++++    ",
"    +++........+++    ",
"    ++..........++    ",
"    +.....++.....+    ",
"    .....++++.....    ",
"    ....++++++....    ",
"    ...++++++++...    ",
"                      ",
"                      ",
"                      ",
"                      "};
