/* XPM */
static char * hide_pressed_xpm[] = {
"22 28 4 1",
" 	c None",
".	c #222222",
"+	c #584C6D",
"@	c #152E5B",
"                      ",
"                      ",
"                      ",
"                      ",
"                      ",
"                      ",
"                      ",
"                      ",
"                      ",
"                      ",
"    ..............    ",
"    ..............    ",
"    ..............    ",
"    ..............    ",
"    ..............    ",
"    ..............    ",
"    ..............    ",
"    ..............    ",
"    ..............    ",
"    ..............    ",
"    ..............    ",
"    +++@@@...@@+++    ",
"    +++@@@...@@+++    ",
"    +++@@@...@@+++    ",
"                      ",
"                      ",
"                      ",
"                      "};
