/* XPM */
static char * left_inactive_xpm[] = {
"4 1 3 1",
" 	c None",
".	c #EDEDED",
"+	c #222222",
".+++"};
