/* XPM */
static char * maximize_active_xpm[] = {
"22 28 4 1",
" 	c None",
".	c #4D3B55",
"+	c #4C3B55",
"@	c #222222",
"                      ",
"                      ",
"                      ",
"                      ",
"                      ",
"                      ",
"                      ",
"                      ",
"                      ",
"                      ",
"    .............+    ",
"    .............+    ",
"    ...+++++......    ",
"    .@@@@@@@@@@@@.    ",
"    .@@@@@@@@@@@@.    ",
"    +@@@@@@@@@@@@.    ",
"    +@@@@@@@@@@@@.    ",
"    +@@@@@@@@@@@@.    ",
"    +@@@@@@@@@@@@.    ",
"    +@@@@@@@@@@@@.    ",
"    .@@@@@@@@@@@@.    ",
"    .@@@@@@@@@@@@.    ",
"    .@@@@@@@@@@@@.    ",
"    ..............    ",
"                      ",
"                      ",
"                      ",
"                      "};
