/* XPM */
static char * maximize_toggled_prelight_xpm[] = {
"22 28 5 1",
" 	c None",
".	c #584C6D",
"+	c #222222",
"@	c #574C6D",
"#	c #564C6D",
"                      ",
"                      ",
"                      ",
"                      ",
"                      ",
"                      ",
"                      ",
"                      ",
"                      ",
"                      ",
"    .........+++++    ",
"    .........+++++    ",
"    .........+++++    ",
"    .+++++++.+++++    ",
"    .+++++++.+++++    ",
"    .++++.........    ",
"    .++++.........    ",
"    .++++.........    ",
"    .........++++.    ",
"    +++++.+++++++.    ",
"    +++++.+++++++@    ",
"    +++++.+++++++@    ",
"    +++++@+++++++@    ",
"    +++++@@@@@@@@#    ",
"                      ",
"                      ",
"                      ",
"                      "};
