/* XPM */
static char * maximize_prelight_xpm[] = {
"22 28 3 1",
" 	c None",
".	c #584C6D",
"+	c #222222",
"                      ",
"                      ",
"                      ",
"                      ",
"                      ",
"                      ",
"                      ",
"                      ",
"                      ",
"                      ",
"    ..............    ",
"    ..............    ",
"    ..............    ",
"    .++++++++++++.    ",
"    .++++++++++++.    ",
"    .++++++++++++.    ",
"    .++++++++++++.    ",
"    .++++++++++++.    ",
"    .++++++++++++.    ",
"    .++++++++++++.    ",
"    .++++++++++++.    ",
"    .++++++++++++.    ",
"    .++++++++++++.    ",
"    ..............    ",
"                      ",
"                      ",
"                      ",
"                      "};
