/* XPM */
static char * maximize_toggled_inactive_xpm[] = {
"22 28 3 1",
" 	c None",
".	c #EDEDED",
"+	c #222222",
"                      ",
"                      ",
"                      ",
"                      ",
"                      ",
"                      ",
"                      ",
"                      ",
"                      ",
"                      ",
"    .........+++++    ",
"    .........+++++    ",
"    .........+++++    ",
"    .+++++++.+++++    ",
"    .+++++++.+++++    ",
"    .++++.........    ",
"    .++++.........    ",
"    .++++.........    ",
"    .........++++.    ",
"    +++++.+++++++.    ",
"    +++++.+++++++.    ",
"    +++++.+++++++.    ",
"    +++++.+++++++.    ",
"    +++++.........    ",
"                      ",
"                      ",
"                      ",
"                      "};
