/* XPM */
static char * maximize_toggled_pressed_xpm[] = {
"22 28 13 1",
" 	c None",
".	c #514C71",
"+	c #524C70",
"@	c #152E5B",
"#	c #222222",
"$	c #554C6E",
"%	c #534C70",
"&	c #544C6F",
"*	c #564C6E",
"=	c #564C6D",
"-	c #574C6D",
";	c #554C6F",
">	c #584C6D",
"                      ",
"                      ",
"                      ",
"                      ",
"                      ",
"                      ",
"                      ",
"                      ",
"                      ",
"                      ",
"    .+@@#@@$$#####    ",
"    +%&@@@***#####    ",
"    %&$*@==-=#####    ",
"    &#######-#####    ",
"    ;#######-#####    ",
"    $####->@@#@@-=    ",
"    $####>>>@@@---    ",
"    $####>>>>@----    ",
"    $*---->>>####-    ",
"    #####-#######-    ",
"    #####-#######-    ",
"    #####-#######-    ",
"    #####-#######-    ",
"    #####=--------    ",
"                      ",
"                      ",
"                      ",
"                      "};
