/* XPM */
static char * menu_prelight_xpm[] = {
"22 28 4 1",
" 	c None",
".	c #574C6D",
"+	c #222222",
"@	c #584C6D",
"                      ",
"                      ",
"                      ",
"                      ",
"                      ",
"                      ",
"                      ",
"                      ",
"                      ",
"                      ",
"    ..............    ",
"    ++++++++++++++    ",
"    ++++++++++++++    ",
"    ++++++++++++++    ",
"    ..............    ",
"    ++++++++++++++    ",
"    ++++++++++++++    ",
"    ++++++++++++++    ",
"    ....@@@@@@@@..    ",
"    ++++++++++++++    ",
"    ++++++++++++++    ",
"    ++++++++++++++    ",
"    ..............    ",
"    ++++++++++++++    ",
"                      ",
"                      ",
"                      ",
"                      "};
