/* XPM */
static char * menu_pressed_xpm[] = {
"22 28 5 1",
" 	c None",
".	c #584C6D",
"+	c #152E5B",
"@	c #222222",
"#	c #574C6D",
"                      ",
"                      ",
"                      ",
"                      ",
"                      ",
"                      ",
"                      ",
"                      ",
"                      ",
"                      ",
"    ...+++@@@+++..    ",
"    @@@@@@@@@@@@@@    ",
"    @@@@@@@@@@@@@@    ",
"    @@@@@@@@@@@@@@    ",
"    ...+++@@@+++..    ",
"    @@@@@@@@@@@@@@    ",
"    @@@@@@@@@@@@@@    ",
"    @@@@@@@@@@@@@@    ",
"    ...+++@@@+++..    ",
"    @@@@@@@@@@@@@@    ",
"    @@@@@@@@@@@@@@    ",
"    @@@@@@@@@@@@@@    ",
"    ##.+++@@@+++##    ",
"    @@@@@@@@@@@@@@    ",
"                      ",
"                      ",
"                      ",
"                      "};
