/* XPM */
static char * shade_toggled_pressed_xpm[] = {
"22 28 6 1",
" 	c None",
".	c #222222",
"+	c #584C6D",
"@	c #574C6D",
"#	c #152E5B",
"$	c #0A2958",
"                      ",
"                      ",
"                      ",
"                      ",
"                      ",
"                      ",
"                      ",
"                      ",
"                      ",
"                      ",
"    .....+@+......    ",
"    .....+++......    ",
"    .....+++......    ",
"    .....+++......    ",
"    .....+++......    ",
"    .....+++......    ",
"    .....+++......    ",
"    .....+++......    ",
"    +....+#+....+.    ",
"    .+...###...+..    ",
"    ..++#####++...    ",
"    ...###.###....    ",
"    ....#...#.....    ",
"    .....$.$......    ",
"                      ",
"                      ",
"                      ",
"                      "};
