/* XPM */
static char * shade_toggled_active_xpm[] = {
"22 28 5 1",
" 	c None",
".	c #222222",
"+	c #4D3B55",
"@	c #4C3B55",
"#	c #4C3B56",
"                      ",
"                      ",
"                      ",
"                      ",
"                      ",
"                      ",
"                      ",
"                      ",
"                      ",
"                      ",
"    .....+++......    ",
"    .....+++......    ",
"    .....+++......    ",
"    .....+++......    ",
"    .....+++......    ",
"    .....+++......    ",
"    .....+++......    ",
"    .....+++......    ",
"    +....+++....@.    ",
"    .+...+++...@..    ",
"    ..++++++++@...    ",
"    ...++++++@....    ",
"    ....++@@#.....    ",
"    .....+@#......    ",
"                      ",
"                      ",
"                      ",
"                      "};
