/* XPM */
static char * shade_toggled_inactive_xpm[] = {
"22 28 3 1",
" 	c None",
".	c #222222",
"+	c #EDEDED",
"                      ",
"                      ",
"                      ",
"                      ",
"                      ",
"                      ",
"                      ",
"                      ",
"                      ",
"                      ",
"    .....+++......    ",
"    .....+++......    ",
"    .....+++......    ",
"    .....+++......    ",
"    .....+++......    ",
"    .....+++......    ",
"    .....+++......    ",
"    .....+++......    ",
"    +....+++....+.    ",
"    .+...+++...+..    ",
"    ..+++++++++...    ",
"    ...+++++++....    ",
"    ....+++++.....    ",
"    .....+++......    ",
"                      ",
"                      ",
"                      ",
"                      "};
