/* XPM */
static char * shade_pressed_xpm[] = {
"22 28 9 1",
" 	c None",
".	c #222222",
"+	c #0A2958",
"@	c #1C315D",
"#	c #1C315C",
"$	c #1D315D",
"%	c #574C6D",
"&	c #584C6D",
"*	c #1D325D",
"                      ",
"                      ",
"                      ",
"                      ",
"                      ",
"                      ",
"                      ",
"                      ",
"                      ",
"                      ",
"    ......+.+.....    ",
"    .....@...#....    ",
"    ....$$@.@@#...    ",
"    ...%%$$$$@&&..    ",
"    ..%...$$$...&.    ",
"    .%....&*&....%    ",
"    ......&&&.....    ",
"    ......&&&.....    ",
"    ......&&&.....    ",
"    ......&&&.....    ",
"    ......&&&.....    ",
"    ......&&%.....    ",
"    ......&%%.....    ",
"    ......%%%.....    ",
"                      ",
"                      ",
"                      ",
"                      "};
