/* XPM */
static char * shade_pressed_xpm[] = {
"22 28 4 1",
" 	c None",
".	c #222222",
"+	c #0A2958",
"@	c #134CA2",
"                      ",
"                      ",
"                      ",
"                      ",
"                      ",
"                      ",
"                      ",
"                      ",
"                      ",
"                      ",
"    ......+.+.....    ",
"    .....+...+....    ",
"    ....+++.+++...    ",
"    ...@@+++++@@..    ",
"    ..@...+++...@.    ",
"    .@....@+@....@    ",
"    ......@@@.....    ",
"    ......@@@.....    ",
"    ......@@@.....    ",
"    ......@@@.....    ",
"    ......@@@.....    ",
"    ......@@@.....    ",
"    ......@@@.....    ",
"    ......@@@.....    ",
"                      ",
"                      ",
"                      ",
"                      "};
