/* XPM */
static char * stick_toggled_pressed_xpm[] = {
"22 28 7 1",
" 	c None",
".	c #222222",
"+	c #564C6E",
"@	c #564C6D",
"#	c #574C6D",
"$	c #152E5B",
"%	c #584C6D",
"                      ",
"                      ",
"                      ",
"                      ",
"                      ",
"                      ",
"                      ",
"                      ",
"                      ",
"                      ",
"    ..............    ",
"    ..............    ",
"    .....++.@.....    ",
"    ..............    ",
"    ..............    ",
"    ..............    ",
"    ...##$$.$%#...    ",
"    ..##$$$.$$%%..    ",
"    ...%%$$.$%%...    ",
"    ..............    ",
"    ..............    ",
"    ##%%$$$.$$%%%#    ",
"    ##%$$$...$$%%#    ",
"    ##%%$$$.$$%%%#    ",
"                      ",
"                      ",
"                      ",
"                      "};
