/* XPM */
static char * stick_pressed_xpm[] = {
"22 28 4 1",
" 	c None",
".	c #584C6D",
"+	c #152E5B",
"@	c #222222",
"                      ",
"                      ",
"                      ",
"                      ",
"                      ",
"                      ",
"                      ",
"                      ",
"                      ",
"                      ",
"    ....++@+++....    ",
"    ...++@@@+++...    ",
"    ....++@+++....    ",
"    @@@@@@@@@@@@@@    ",
"    @@@@@@@@@@@@@@    ",
"    @@@..+@++..@@@    ",
"    @@..++@+++..@@    ",
"    @@@..+@++..@@@    ",
"    @@@@@@@@@@@@@@    ",
"    @@@@@@@@@@@@@@    ",
"    @@@@@@@@@@@@@@    ",
"    @@@@@.@..@@@@@    ",
"    @@@@@@@@@@@@@@    ",
"    @@@@@@@@@@@@@@    ",
"                      ",
"                      ",
"                      ",
"                      "};
