/* XPM */
static char * stick_toggled_pressed_xpm[] = {
"22 28 4 1",
" 	c None",
".	c #222222",
"+	c #134CA2",
"@	c #0A2958",
"                      ",
"                      ",
"                      ",
"                      ",
"                      ",
"                      ",
"                      ",
"                      ",
"                      ",
"                      ",
"    ..............    ",
"    ..............    ",
"    .....++.+.....    ",
"    ..............    ",
"    ..............    ",
"    ..............    ",
"    ...++@@.@++...    ",
"    ..++@@@.@@++..    ",
"    ...++@@.@++...    ",
"    ..............    ",
"    ..............    ",
"    ++++@@@.@@++++    ",
"    +++@@@...@@+++    ",
"    ++++@@@.@@++++    ",
"                      ",
"                      ",
"                      ",
"                      "};
