/* XPM */
static char * stick_active_xpm[] = {
"22 28 6 1",
" 	c None",
".	c #4C3C57",
"+	c #4C3B56",
"@	c #4C3B55",
"#	c #4D3B55",
"$	c #222222",
"                      ",
"                      ",
"                      ",
"                      ",
"                      ",
"                      ",
"                      ",
"                      ",
"                      ",
"                      ",
"    .+@@##########    ",
"    ##@@##########    ",
"    ##############    ",
"    $$$$$$$$$$$$$$    ",
"    $$$$$$$$$$$$$$    ",
"    $$$########$$$    ",
"    $$##########$$    ",
"    $$$########$$$    ",
"    $$$$$$$$$$$$$$    ",
"    $$$$$$$$$$$$$$    ",
"    $$$$$$$$$$$$$$    ",
"    $$$$$####$$$$$    ",
"    $$$$$$$$$$$$$$    ",
"    $$$$$$$$$$$$$$    ",
"                      ",
"                      ",
"                      ",
"                      "};
