/* XPM */
static char * stick_prelight_xpm[] = {
"22 28 6 1",
" 	c None",
".	c #564C6E",
"+	c #564C6D",
"@	c #574C6D",
"#	c #584C6D",
"$	c #222222",
"                      ",
"                      ",
"                      ",
"                      ",
"                      ",
"                      ",
"                      ",
"                      ",
"                      ",
"                      ",
"    ..+@@@@@@@@@@@    ",
"    .@@@@@@@@####@    ",
"    @@@@@@@######@    ",
"    $$$$$$$$$$$$$$    ",
"    $$$$$$$$$$$$$$    ",
"    $$$########$$$    ",
"    $$##########$$    ",
"    $$$########$$$    ",
"    $$$$$$$$$$$$$$    ",
"    $$$$$$$$$$$$$$    ",
"    $$$$$$$$$$$$$$    ",
"    $$$$$###@$$$$$    ",
"    $$$$$$$$$$$$$$    ",
"    $$$$$$$$$$$$$$    ",
"                      ",
"                      ",
"                      ",
"                      "};
