/* XPM */
static char * stick_toggled_prelight_xpm[] = {
"22 28 5 1",
" 	c None",
".	c #222222",
"+	c #564C6D",
"@	c #574C6D",
"#	c #584C6D",
"                      ",
"                      ",
"                      ",
"                      ",
"                      ",
"                      ",
"                      ",
"                      ",
"                      ",
"                      ",
"    ..............    ",
"    ..............    ",
"    .....+@@@.....    ",
"    ..............    ",
"    ..............    ",
"    ..............    ",
"    ...@@######...    ",
"    ..@@@#######..    ",
"    ...@#######...    ",
"    ..............    ",
"    ..............    ",
"    @@@###########    ",
"    @@@###########    ",
"    @@@@##########    ",
"                      ",
"                      ",
"                      ",
"                      "};
