/* XPM */
static char * top_left_inactive_xpm[] = {
"28 28 3 1",
" 	c None",
".	c #EDEDED",
"+	c #222222",
"                         ...",
"                        ...+",
"                       ...++",
"                      ...+++",
"                     ...++++",
"                    ...+++++",
"                   ...++++++",
"                  ...+++++++",
"                 ...++++++++",
"                ...+++++++++",
"               ...++++++++++",
"              ...+++++++++++",
"             ...++++++++++++",
"            ...+++++++++++++",
"           ...++++++++++++++",
"          ...+++++++++++++++",
"         ...++++++++++++++++",
"        ...+++++++++++++++++",
"       ...++++++++++++++++++",
"      ...+++++++++++++++++++",
"     ...++++++++++++++++++++",
"    ...+++++++++++++++++++++",
"   ...++++++++++++++++++++++",
"  ...+++++++++++++++++++++++",
" ...++++++++++++++++++++++++",
"...+++++++++++++++++++++++++",
"..++++++++++++++++++++++++++",
".+++++++++++++++++++++++++++"};
