/* XPM */
static char * top_right_active_xpm[] = {
"4 28 3 1",
" 	c None",
".	c #4D3B55",
"+	c #222222",
"....",
"+++.",
"+++.",
"+++.",
"+++.",
"+++.",
"+++.",
"+++.",
"+++.",
"+++.",
"+++.",
"+++.",
"+++.",
"+++.",
"+++.",
"+++.",
"+++.",
"+++.",
"+++.",
"+++.",
"+++.",
"+++.",
"+++.",
"+++.",
"+++.",
"+++.",
"+++.",
"+++."};
